<svg width="13" height="13" viewBox="0 0 13 13" fill="none" xmlns="http://www.w3.org/2000/svg">
<path fill-rule="evenodd" clip-rule="evenodd" d="M6.5 0C10.0841 0 13 2.9159 13 6.5C13 10.0841 10.0841 13 6.5 13C2.9159 13 0 10.0841 0 6.5C0 2.9159 2.9159 0 6.5 0ZM6.5 0.975C3.45345 0.975 0.975 3.45345 0.975 6.5C0.975 9.54655 3.45345 12.025 6.5 12.025C9.54655 12.025 12.025 9.54655 12.025 6.5C12.025 3.45345 9.54655 0.975 6.5 0.975ZM6.27978 3.31201C6.54953 3.31201 6.76728 3.53041 6.76728 3.79951V6.67381L8.98053 7.99331C9.21128 8.13176 9.28733 8.43076 9.14953 8.66216C9.05788 8.81491 8.89603 8.90006 8.73028 8.90006C8.64513 8.90006 8.55933 8.87796 8.48068 8.83181L6.03018 7.36996C5.88328 7.28156 5.79228 7.12231 5.79228 6.95071V3.79951C5.79228 3.53041 6.01068 3.31201 6.27978 3.31201Z" fill="#CD9010"/>
</svg>
