<svg width="12" height="13" viewBox="0 0 12 13" fill="none" xmlns="http://www.w3.org/2000/svg">
<path d="M8.43311 1.46591e-06C8.71614 -0.000646736 8.93993 0.213746 8.94059 0.499603L8.94125 0.986858C10.7777 1.12719 11.9908 2.34728 11.9928 4.21834L12 9.69509C12.0026 11.7351 10.6882 12.9902 8.58121 12.9935L3.43459 13C1.3408 13.0026 0.00988213 11.7175 0.00724926 9.67171L4.41826e-06 4.25927C-0.00262402 2.37586 1.16769 1.15902 3.00412 0.994654L3.00346 0.507399C3.0028 0.221542 3.22001 0.00649968 3.50963 0.00649968C3.79925 0.00585001 4.01646 0.220243 4.01712 0.506099L4.01778 0.960871L7.92759 0.955674L7.92694 0.500902C7.92628 0.215045 8.14349 0.000652613 8.43311 1.46591e-06ZM8.70166 9.22473H8.69508C8.3923 9.23188 8.14941 9.4794 8.156 9.77825C8.15665 10.0771 8.40085 10.3233 8.70363 10.3298C9.01234 10.3292 9.26246 10.0816 9.2618 9.7763C9.2618 9.47096 9.01102 9.22473 8.70166 9.22473ZM3.27794 9.22538C2.97516 9.23837 2.7382 9.4859 2.73886 9.78475C2.75268 10.0836 3.0028 10.3175 3.30558 10.3038C3.60244 10.2908 3.83874 10.0433 3.82492 9.74447C3.81834 9.45212 3.57414 9.22473 3.27794 9.22538ZM5.9898 9.22213C5.68702 9.23577 5.45072 9.48265 5.45072 9.7815C5.46454 10.0803 5.71466 10.3136 6.01744 10.3006C6.31364 10.2869 6.5506 10.0401 6.53678 9.74057C6.5302 9.44887 6.286 9.22148 5.9898 9.22213ZM3.27465 6.88655C2.97187 6.89954 2.73557 7.14707 2.73622 7.44592C2.74939 7.74477 3.00017 7.97865 3.30295 7.96501C3.59915 7.95202 3.83545 7.70449 3.82163 7.40564C3.81504 7.11329 3.5715 6.8859 3.27465 6.88655ZM5.98717 6.86381C5.68439 6.87681 5.44743 7.12433 5.44808 7.42318C5.46125 7.72203 5.71203 7.95527 6.01481 7.94227C6.31101 7.92863 6.54731 7.68175 6.53414 7.3829C6.5269 7.09055 6.28336 6.86316 5.98717 6.86381ZM8.69903 6.86706C8.39625 6.87356 8.15929 7.11394 8.15994 7.41279V7.41993C8.16653 7.71878 8.41665 7.94552 8.72009 7.93902C9.01629 7.93188 9.25259 7.68435 9.24601 7.3855C9.23218 7.09964 8.99457 6.86641 8.69903 6.86706ZM7.92891 1.95617L4.01909 1.96137L4.01975 2.48696C4.01975 2.76697 3.8032 2.98786 3.51358 2.98786C3.22396 2.98851 3.00609 2.76827 3.00609 2.48826L3.00543 1.98801C1.72191 2.11339 1.01169 2.84882 1.01366 4.25797L1.01432 4.46002L10.9798 4.44702V4.21964C10.9514 2.82284 10.2327 2.09001 8.94257 1.98086L8.94323 2.48111C8.94323 2.76047 8.72009 2.98201 8.43706 2.98201C8.14744 2.98266 7.92957 2.76177 7.92957 2.48241L7.92891 1.95617Z" fill="#CD9010"/>
</svg>
