<svg width="17" height="13" viewBox="0 0 17 13" fill="none" xmlns="http://www.w3.org/2000/svg">
<path d="M10.4294 12.5789C10.1176 11.7483 9.001 8.96025 8.53805 7.80682C7.66518 8.36535 6.69101 8.89432 5.75878 9.26793C5.46914 10.238 4.89303 12.0787 4.61447 12.3243C4.13649 12.7464 3.95605 12.6918 3.88246 12.1128C3.80886 11.5339 3.49865 9.66049 3.49865 9.66049C3.49865 9.66049 1.78772 8.73669 1.25117 8.4722C0.714628 8.20772 0.723333 8.02432 1.29628 7.73407C1.63024 7.56507 3.6126 7.66966 4.65325 7.73786C5.33461 7.01716 6.18137 6.31162 7.0218 5.70762C6.06029 4.89219 3.73764 2.92258 3.03807 2.35496C2.42397 1.85631 3.10059 1.75097 3.10059 1.75097C3.40922 1.69792 4.06764 1.65094 4.38893 1.74415C6.38633 2.32238 9.4869 3.31135 10.2157 3.54476L11.1353 2.92258C14.8563 0.398994 15.7941 0.957518 15.9713 1.2023C16.1486 1.44708 16.3694 2.49137 12.6484 5.01572L11.7304 5.63942C11.7075 6.3821 11.6062 9.54302 11.4843 11.5589C11.4645 11.8832 11.1939 12.4667 11.0372 12.729C11.0364 12.729 10.7024 13.3087 10.4294 12.5789Z" fill="#CD9010"/>
</svg>
