<svg width="61" height="6" viewBox="0 0 61 6" fill="none" xmlns="http://www.w3.org/2000/svg">
<path d="M0 3L5 5.88675V0.113249L0 3ZM4.50072 3.5C4.54287 3.5 4.58498 3.5 4.62704 3.5C4.66911 3.5 4.71114 3.5 4.75314 3.5C4.79513 3.5 4.83708 3.5 4.87899 3.5C4.92091 3.5 4.96278 3.5 5.00462 3.5C5.04646 3.5 5.08826 3.5 5.13002 3.5C5.17178 3.5 5.2135 3.5 5.25519 3.5C5.29687 3.5 5.33852 3.5 5.38013 3.5C5.42174 3.5 5.46331 3.5 5.50485 3.5C5.54638 3.5 5.58788 3.5 5.62933 3.5C5.67079 3.5 5.71221 3.5 5.7536 3.5C5.79498 3.5 5.83633 3.5 5.87764 3.5C5.91895 3.5 5.96022 3.5 6.00145 3.5C6.04269 3.5 6.08389 3.5 6.12505 3.5C6.16621 3.5 6.20734 3.5 6.24842 3.5C6.28951 3.5 6.33056 3.5 6.37158 3.5C6.41259 3.5 6.45357 3.5 6.49451 3.5C6.53545 3.5 6.57636 3.5 6.61723 3.5C6.6581 3.5 6.69893 3.5 6.73973 3.5C6.78053 3.5 6.82129 3.5 6.86201 3.5C6.90274 3.5 6.94343 3.5 6.98408 3.5C7.02474 3.5 7.06535 3.5 7.10594 3.5C7.14652 3.5 7.18707 3.5 7.22758 3.5C7.26809 3.5 7.30857 3.5 7.34901 3.5C7.38945 3.5 7.42985 3.5 7.47022 3.5C7.5106 3.5 7.55093 3.5 7.59123 3.5C7.63153 3.5 7.6718 3.5 7.71203 3.5C7.75226 3.5 7.79246 3.5 7.83262 3.5C7.87278 3.5 7.91291 3.5 7.953 3.5C7.9931 3.5 8.03316 3.5 8.07318 3.5C8.11321 3.5 8.1532 3.5 8.19315 3.5C8.23311 3.5 8.27303 3.5 8.31292 3.5C8.35281 3.5 8.39266 3.5 8.43248 3.5C8.4723 3.5 8.51209 3.5 8.55184 3.5C8.5916 3.5 8.63132 3.5 8.671 3.5C8.71069 3.5 8.75034 3.5 8.78996 3.5C8.82958 3.5 8.86917 3.5 8.90872 3.5C8.94828 3.5 8.9878 3.5 9.02728 3.5C9.06677 3.5 9.10623 3.5 9.14565 3.5C9.18507 3.5 9.22446 3.5 9.26382 3.5C9.30317 3.5 9.3425 3.5 9.38179 3.5C9.42108 3.5 9.46034 3.5 9.49957 3.5C9.53879 3.5 9.57799 3.5 9.61715 3.5C9.65631 3.5 9.69544 3.5 9.73454 3.5C9.77364 3.5 9.8127 3.5 9.85174 3.5C9.89077 3.5 9.92978 3.5 9.96875 3.5C10.0077 3.5 10.0467 3.5 10.0856 3.5C10.1245 3.5 10.1634 3.5 10.2022 3.5C10.241 3.5 10.2799 3.5 10.3186 3.5C10.3574 3.5 10.3962 3.5 10.4349 3.5C10.4736 3.5 10.5123 3.5 10.551 3.5C10.5896 3.5 10.6283 3.5 10.6669 3.5C10.7055 3.5 10.744 3.5 10.7826 3.5C10.8211 3.5 10.8596 3.5 10.8981 3.5C10.9365 3.5 10.975 3.5 11.0134 3.5C11.0518 3.5 11.0902 3.5 11.1286 3.5C11.1669 3.5 11.2052 3.5 11.2435 3.5C11.2818 3.5 11.3201 3.5 11.3583 3.5C11.3966 3.5 11.4348 3.5 11.473 3.5C11.5111 3.5 11.5493 3.5 11.5874 3.5C11.6255 3.5 11.6636 3.5 11.7017 3.5C11.7397 3.5 11.7778 3.5 11.8158 3.5C11.8538 3.5 11.8917 3.5 11.9297 3.5C11.9676 3.5 12.0055 3.5 12.0434 3.5C12.0813 3.5 12.1192 3.5 12.157 3.5C12.1948 3.5 12.2326 3.5 12.2704 3.5C12.3082 3.5 12.3459 3.5 12.3836 3.5C12.4213 3.5 12.459 3.5 12.4967 3.5C12.5344 3.5 12.572 3.5 12.6096 3.5C12.6472 3.5 12.6848 3.5 12.7223 3.5C12.7599 3.5 12.7974 3.5 12.8349 3.5C12.8724 3.5 12.9098 3.5 12.9473 3.5C12.9847 3.5 13.0221 3.5 13.0595 3.5C13.0969 3.5 13.1342 3.5 13.1716 3.5C13.2089 3.5 13.2462 3.5 13.2835 3.5C13.3208 3.5 13.358 3.5 13.3952 3.5C13.4324 3.5 13.4696 3.5 13.5068 3.5C13.544 3.5 13.5811 3.5 13.6182 3.5C13.6553 3.5 13.6924 3.5 13.7295 3.5C13.7666 3.5 13.8036 3.5 13.8406 3.5C13.8776 3.5 13.9146 3.5 13.9516 3.5C13.9885 3.5 14.0254 3.5 14.0624 3.5C14.0993 3.5 14.1361 3.5 14.173 3.5C14.2099 3.5 14.2467 3.5 14.2835 3.5C14.3203 3.5 14.3571 3.5 14.3938 3.5C14.4306 3.5 14.4673 3.5 14.504 3.5C14.5407 3.5 14.5774 3.5 14.614 3.5C14.6507 3.5 14.6873 3.5 14.7239 3.5C14.7605 3.5 14.7971 3.5 14.8337 3.5C14.8702 3.5 14.9068 3.5 14.9433 3.5C14.9798 3.5 15.0162 3.5 15.0527 3.5C15.0892 3.5 15.1256 3.5 15.162 3.5C15.1984 3.5 15.2348 3.5 15.2712 3.5C15.3075 3.5 15.3438 3.5 15.3802 3.5C15.4165 3.5 15.4528 3.5 15.489 3.5C15.5253 3.5 15.5615 3.5 15.5978 3.5C15.634 3.5 15.6702 3.5 15.7063 3.5C15.7425 3.5 15.7787 3.5 15.8148 3.5C15.8509 3.5 15.887 3.5 15.9231 3.5C15.9592 3.5 15.9952 3.5 16.0313 3.5C16.0673 3.5 16.1033 3.5 16.1393 3.5C16.1753 3.5 16.2112 3.5 16.2472 3.5C16.2831 3.5 16.319 3.5 16.3549 3.5C16.3908 3.5 16.4267 3.5 16.4626 3.5C16.4984 3.5 16.5342 3.5 16.5701 3.5C16.6059 3.5 16.6417 3.5 16.6774 3.5C16.7132 3.5 16.7489 3.5 16.7847 3.5C16.8204 3.5 16.8561 3.5 16.8918 3.5C16.9274 3.5 16.9631 3.5 16.9987 3.5C17.0344 3.5 17.07 3.5 17.1056 3.5C17.1412 3.5 17.1767 3.5 17.2123 3.5C17.2478 3.5 17.2834 3.5 17.3189 3.5C17.3544 3.5 17.3899 3.5 17.4253 3.5C17.4608 3.5 17.4963 3.5 17.5317 3.5C17.5671 3.5 17.6025 3.5 17.6379 3.5C17.6733 3.5 17.7086 3.5 17.744 3.5C17.7793 3.5 17.8147 3.5 17.85 3.5C17.8853 3.5 17.9206 3.5 17.9558 3.5C17.9911 3.5 18.0263 3.5 18.0616 3.5C18.0968 3.5 18.132 3.5 18.1672 3.5C18.2024 3.5 18.2375 3.5 18.2727 3.5C18.3078 3.5 18.343 3.5 18.3781 3.5C18.4132 3.5 18.4483 3.5 18.4833 3.5C18.5184 3.5 18.5535 3.5 18.5885 3.5C18.6235 3.5 18.6585 3.5 18.6935 3.5C18.7285 3.5 18.7635 3.5 18.7985 3.5C18.8334 3.5 18.8683 3.5 18.9033 3.5C18.9382 3.5 18.9731 3.5 19.008 3.5C19.0429 3.5 19.0777 3.5 19.1126 3.5C19.1474 3.5 19.1823 3.5 19.2171 3.5C19.2519 3.5 19.2867 3.5 19.3214 3.5C19.3562 3.5 19.391 3.5 19.4257 3.5C19.4605 3.5 19.4952 3.5 19.5299 3.5C19.5646 3.5 19.5993 3.5 19.634 3.5C19.6686 3.5 19.7033 3.5 19.7379 3.5C19.7726 3.5 19.8072 3.5 19.8418 3.5C19.8764 3.5 19.911 3.5 19.9455 3.5C19.9801 3.5 20.0147 3.5 20.0492 3.5C20.0837 3.5 20.1182 3.5 20.1527 3.5C20.1872 3.5 20.2217 3.5 20.2562 3.5C20.2907 3.5 20.3251 3.5 20.3596 3.5C20.394 3.5 20.4284 3.5 20.4628 3.5C20.4972 3.5 20.5316 3.5 20.566 3.5C20.6004 3.5 20.6347 3.5 20.6691 3.5C20.7034 3.5 20.7377 3.5 20.7721 3.5C20.8064 3.5 20.8407 3.5 20.8749 3.5C20.9092 3.5 20.9435 3.5 20.9777 3.5C21.012 3.5 21.0462 3.5 21.0804 3.5C21.1147 3.5 21.1489 3.5 21.1831 3.5C21.2172 3.5 21.2514 3.5 21.2856 3.5C21.3197 3.5 21.3539 3.5 21.388 3.5C21.4222 3.5 21.4563 3.5 21.4904 3.5C21.5245 3.5 21.5586 3.5 21.5926 3.5C21.6267 3.5 21.6608 3.5 21.6948 3.5C21.7289 3.5 21.7629 3.5 21.7969 3.5C21.8309 3.5 21.8649 3.5 21.8989 3.5C21.9329 3.5 21.9669 3.5 22.0009 3.5C22.0348 3.5 22.0688 3.5 22.1027 3.5C22.1366 3.5 22.1706 3.5 22.2045 3.5C22.2384 3.5 22.2723 3.5 22.3062 3.5C22.3401 3.5 22.3739 3.5 22.4078 3.5C22.4416 3.5 22.4755 3.5 22.5093 3.5C22.5432 3.5 22.577 3.5 22.6108 3.5C22.6446 3.5 22.6784 3.5 22.7122 3.5C22.7459 3.5 22.7797 3.5 22.8135 3.5C22.8472 3.5 22.881 3.5 22.9147 3.5C22.9484 3.5 22.9822 3.5 23.0159 3.5C23.0496 3.5 23.0833 3.5 23.117 3.5C23.1507 3.5 23.1843 3.5 23.218 3.5C23.2517 3.5 23.2853 3.5 23.3189 3.5C23.3526 3.5 23.3862 3.5 23.4198 3.5C23.4535 3.5 23.4871 3.5 23.5207 3.5C23.5542 3.5 23.5878 3.5 23.6214 3.5C23.655 3.5 23.6885 3.5 23.7221 3.5C23.7556 3.5 23.7892 3.5 23.8227 3.5C23.8562 3.5 23.8898 3.5 23.9233 3.5C23.9568 3.5 23.9903 3.5 24.0238 3.5C24.0573 3.5 24.0907 3.5 24.1242 3.5C24.1577 3.5 24.1911 3.5 24.2246 3.5C24.258 3.5 24.2915 3.5 24.3249 3.5C24.3583 3.5 24.3917 3.5 24.4252 3.5C24.4586 3.5 24.492 3.5 24.5254 3.5C24.5587 3.5 24.5921 3.5 24.6255 3.5C24.6589 3.5 24.6922 3.5 24.7256 3.5C24.7589 3.5 24.7923 3.5 24.8256 3.5C24.859 3.5 24.8923 3.5 24.9256 3.5C24.9589 3.5 24.9922 3.5 25.0255 3.5C25.0588 3.5 25.0921 3.5 25.1254 3.5C25.1587 3.5 25.192 3.5 25.2252 3.5C25.2585 3.5 25.2918 3.5 25.325 3.5C25.3583 3.5 25.3915 3.5 25.4247 3.5C25.458 3.5 25.4912 3.5 25.5244 3.5C25.5576 3.5 25.5908 3.5 25.624 3.5C25.6572 3.5 25.6904 3.5 25.7236 3.5C25.7568 3.5 25.79 3.5 25.8232 3.5C25.8563 3.5 25.8895 3.5 25.9227 3.5C25.9558 3.5 25.989 3.5 26.0221 3.5C26.0553 3.5 26.0884 3.5 26.1215 3.5C26.1547 3.5 26.1878 3.5 26.2209 3.5C26.254 3.5 26.2871 3.5 26.3202 3.5C26.3533 3.5 26.3864 3.5 26.4195 3.5C26.4526 3.5 26.4857 3.5 26.5188 3.5C26.5519 3.5 26.5849 3.5 26.618 3.5C26.6511 3.5 26.6841 3.5 26.7172 3.5C26.7502 3.5 26.7833 3.5 26.8163 3.5C26.8494 3.5 26.8824 3.5 26.9154 3.5C26.9485 3.5 26.9815 3.5 27.0145 3.5C27.0475 3.5 27.0805 3.5 27.1136 3.5C27.1466 3.5 27.1796 3.5 27.2126 3.5C27.2456 3.5 27.2786 3.5 27.3116 3.5C27.3446 3.5 27.3775 3.5 27.4105 3.5C27.4435 3.5 27.4765 3.5 27.5094 3.5C27.5424 3.5 27.5754 3.5 27.6083 3.5C27.6413 3.5 27.6743 3.5 27.7072 3.5C27.7402 3.5 27.7731 3.5 27.8061 3.5C27.839 3.5 27.872 3.5 27.9049 3.5C27.9378 3.5 27.9708 3.5 28.0037 3.5C28.0366 3.5 28.0696 3.5 28.1025 3.5C28.1354 3.5 28.1683 3.5 28.2012 3.5C28.2342 3.5 28.2671 3.5 28.3 3.5C28.3329 3.5 28.3658 3.5 28.3987 3.5C28.4316 3.5 28.4645 3.5 28.4974 3.5C28.5303 3.5 28.5632 3.5 28.5961 3.5C28.629 3.5 28.6619 3.5 28.6948 3.5C28.7276 3.5 28.7605 3.5 28.7934 3.5C28.8263 3.5 28.8592 3.5 28.892 3.5C28.9249 3.5 28.9578 3.5 28.9907 3.5C29.0235 3.5 29.0564 3.5 29.0893 3.5C29.1221 3.5 29.155 3.5 29.1879 3.5C29.2207 3.5 29.2536 3.5 29.2865 3.5C29.3193 3.5 29.3522 3.5 29.385 3.5C29.4179 3.5 29.4508 3.5 29.4836 3.5C29.5165 3.5 29.5493 3.5 29.5822 3.5C29.615 3.5 29.6479 3.5 29.6807 3.5C29.7136 3.5 29.7464 3.5 29.7793 3.5C29.8121 3.5 29.845 3.5 29.8778 3.5C29.9107 3.5 29.9435 3.5 29.9764 3.5C30.0092 3.5 30.0421 3.5 30.0749 3.5C30.1078 3.5 30.1406 3.5 30.1735 3.5C30.2063 3.5 30.2391 3.5 30.272 3.5C30.3048 3.5 30.3377 3.5 30.3705 3.5C30.4034 3.5 30.4362 3.5 30.4691 3.5C30.5019 3.5 30.5348 3.5 30.5676 3.5C30.6005 3.5 30.6333 3.5 30.6662 3.5C30.699 3.5 30.7319 3.5 30.7647 3.5C30.7976 3.5 30.8304 3.5 30.8633 3.5C30.8961 3.5 30.929 3.5 30.9618 3.5C30.9947 3.5 31.0275 3.5 31.0604 3.5C31.0932 3.5 31.1261 3.5 31.159 3.5C31.1918 3.5 31.2247 3.5 31.2575 3.5C31.2904 3.5 31.3233 3.5 31.3561 3.5C31.389 3.5 31.4219 3.5 31.4547 3.5C31.4876 3.5 31.5205 3.5 31.5534 3.5C31.5862 3.5 31.6191 3.5 31.652 3.5C31.6849 3.5 31.7177 3.5 31.7506 3.5C31.7835 3.5 31.8164 3.5 31.8493 3.5C31.8822 3.5 31.9151 3.5 31.948 3.5C31.9809 3.5 32.0138 3.5 32.0467 3.5C32.0796 3.5 32.1125 3.5 32.1454 3.5C32.1783 3.5 32.2112 3.5 32.2441 3.5C32.277 3.5 32.3099 3.5 32.3428 3.5C32.3758 3.5 32.4087 3.5 32.4416 3.5C32.4745 3.5 32.5075 3.5 32.5404 3.5C32.5733 3.5 32.6063 3.5 32.6392 3.5C32.6722 3.5 32.7051 3.5 32.738 3.5C32.771 3.5 32.804 3.5 32.8369 3.5C32.8699 3.5 32.9028 3.5 32.9358 3.5C32.9688 3.5 33.0017 3.5 33.0347 3.5C33.0677 3.5 33.1007 3.5 33.1337 3.5C33.1666 3.5 33.1996 3.5 33.2326 3.5C33.2656 3.5 33.2986 3.5 33.3316 3.5C33.3646 3.5 33.3976 3.5 33.4307 3.5C33.4637 3.5 33.4967 3.5 33.5297 3.5C33.5627 3.5 33.5958 3.5 33.6288 3.5C33.6618 3.5 33.6949 3.5 33.7279 3.5C33.761 3.5 33.794 3.5 33.8271 3.5C33.8602 3.5 33.8932 3.5 33.9263 3.5C33.9594 3.5 33.9924 3.5 34.0255 3.5C34.0586 3.5 34.0917 3.5 34.1248 3.5C34.1579 3.5 34.191 3.5 34.2241 3.5C34.2572 3.5 34.2903 3.5 34.3235 3.5C34.3566 3.5 34.3897 3.5 34.4228 3.5C34.456 3.5 34.4891 3.5 34.5223 3.5C34.5554 3.5 34.5886 3.5 34.6218 3.5C34.6549 3.5 34.6881 3.5 34.7213 3.5C34.7544 3.5 34.7876 3.5 34.8208 3.5C34.854 3.5 34.8872 3.5 34.9204 3.5C34.9536 3.5 34.9869 3.5 35.0201 3.5C35.0533 3.5 35.0865 3.5 35.1198 3.5C35.153 3.5 35.1863 3.5 35.2195 3.5C35.2528 3.5 35.2861 3.5 35.3193 3.5C35.3526 3.5 35.3859 3.5 35.4192 3.5C35.4525 3.5 35.4858 3.5 35.5191 3.5C35.5524 3.5 35.5857 3.5 35.619 3.5C35.6524 3.5 35.6857 3.5 35.719 3.5C35.7524 3.5 35.7857 3.5 35.8191 3.5C35.8524 3.5 35.8858 3.5 35.9192 3.5C35.9526 3.5 35.986 3.5 36.0194 3.5C36.0528 3.5 36.0862 3.5 36.1196 3.5C36.153 3.5 36.1864 3.5 36.2199 3.5C36.2533 3.5 36.2868 3.5 36.3202 3.5C36.3537 3.5 36.3871 3.5 36.4206 3.5C36.4541 3.5 36.4876 3.5 36.5211 3.5C36.5546 3.5 36.5881 3.5 36.6216 3.5C36.6551 3.5 36.6887 3.5 36.7222 3.5C36.7557 3.5 36.7893 3.5 36.8228 3.5C36.8564 3.5 36.89 3.5 36.9236 3.5C36.9571 3.5 36.9907 3.5 37.0243 3.5C37.0579 3.5 37.0916 3.5 37.1252 3.5C37.1588 3.5 37.1925 3.5 37.2261 3.5C37.2598 3.5 37.2934 3.5 37.3271 3.5C37.3608 3.5 37.3945 3.5 37.4281 3.5C37.4618 3.5 37.4956 3.5 37.5293 3.5C37.563 3.5 37.5967 3.5 37.6305 3.5C37.6642 3.5 37.698 3.5 37.7317 3.5C37.7655 3.5 37.7993 3.5 37.8331 3.5C37.8669 3.5 37.9007 3.5 37.9345 3.5C37.9683 3.5 38.0022 3.5 38.036 3.5C38.0698 3.5 38.1037 3.5 38.1376 3.5C38.1714 3.5 38.2053 3.5 38.2392 3.5C38.2731 3.5 38.307 3.5 38.3409 3.5C38.3749 3.5 38.4088 3.5 38.4427 3.5C38.4767 3.5 38.5107 3.5 38.5446 3.5C38.5786 3.5 38.6126 3.5 38.6466 3.5C38.6806 3.5 38.7146 3.5 38.7487 3.5C38.7827 3.5 38.8167 3.5 38.8508 3.5C38.8848 3.5 38.9189 3.5 38.953 3.5C38.9871 3.5 39.0212 3.5 39.0553 3.5C39.0894 3.5 39.1236 3.5 39.1577 3.5C39.1918 3.5 39.226 3.5 39.2602 3.5C39.2944 3.5 39.3285 3.5 39.3627 3.5C39.3969 3.5 39.4312 3.5 39.4654 3.5C39.4996 3.5 39.5339 3.5 39.5681 3.5C39.6024 3.5 39.6367 3.5 39.671 3.5C39.7053 3.5 39.7396 3.5 39.7739 3.5C39.8082 3.5 39.8426 3.5 39.8769 3.5C39.9113 3.5 39.9457 3.5 39.98 3.5C40.0144 3.5 40.0488 3.5 40.0833 3.5C40.1177 3.5 40.1521 3.5 40.1866 3.5C40.221 3.5 40.2555 3.5 40.29 3.5C40.3245 3.5 40.359 3.5 40.3935 3.5C40.428 3.5 40.4625 3.5 40.4971 3.5C40.5316 3.5 40.5662 3.5 40.6008 3.5C40.6354 3.5 40.67 3.5 40.7046 3.5C40.7392 3.5 40.7738 3.5 40.8085 3.5C40.8431 3.5 40.8778 3.5 40.9125 3.5C40.9472 3.5 40.9819 3.5 41.0166 3.5C41.0513 3.5 41.0861 3.5 41.1208 3.5C41.1556 3.5 41.1903 3.5 41.2251 3.5C41.2599 3.5 41.2947 3.5 41.3296 3.5C41.3644 3.5 41.3992 3.5 41.4341 3.5C41.469 3.5 41.5039 3.5 41.5388 3.5C41.5737 3.5 41.6086 3.5 41.6435 3.5C41.6784 3.5 41.7134 3.5 41.7484 3.5C41.7833 3.5 41.8183 3.5 41.8534 3.5C41.8884 3.5 41.9234 3.5 41.9584 3.5C41.9935 3.5 42.0286 3.5 42.0636 3.5C42.0987 3.5 42.1338 3.5 42.169 3.5C42.2041 3.5 42.2392 3.5 42.2744 3.5C42.3096 3.5 42.3448 3.5 42.38 3.5C42.4152 3.5 42.4504 3.5 42.4856 3.5C42.5209 3.5 42.5561 3.5 42.5914 3.5C42.6267 3.5 42.662 3.5 42.6973 3.5C42.7326 3.5 42.768 3.5 42.8034 3.5C42.8387 3.5 42.8741 3.5 42.9095 3.5C42.9449 3.5 42.9803 3.5 43.0158 3.5C43.0512 3.5 43.0867 3.5 43.1222 3.5C43.1577 3.5 43.1932 3.5 43.2287 3.5C43.2642 3.5 43.2998 3.5 43.3353 3.5C43.3709 3.5 43.4065 3.5 43.4421 3.5C43.4777 3.5 43.5134 3.5 43.549 3.5C43.5847 3.5 43.6203 3.5 43.656 3.5C43.6917 3.5 43.7275 3.5 43.7632 3.5C43.7989 3.5 43.8347 3.5 43.8705 3.5C43.9063 3.5 43.9421 3.5 43.9779 3.5C44.0137 3.5 44.0496 3.5 44.0855 3.5C44.1213 3.5 44.1572 3.5 44.1931 3.5C44.2291 3.5 44.265 3.5 44.301 3.5C44.3369 3.5 44.3729 3.5 44.4089 3.5C44.4449 3.5 44.481 3.5 44.517 3.5C44.5531 3.5 44.5891 3.5 44.6252 3.5C44.6613 3.5 44.6975 3.5 44.7336 3.5C44.7698 3.5 44.8059 3.5 44.8421 3.5C44.8783 3.5 44.9145 3.5 44.9508 3.5C44.987 3.5 45.0233 3.5 45.0596 3.5C45.0958 3.5 45.1321 3.5 45.1685 3.5C45.2048 3.5 45.2412 3.5 45.2776 3.5C45.3139 3.5 45.3503 3.5 45.3868 3.5C45.4232 3.5 45.4597 3.5 45.4961 3.5C45.5326 3.5 45.5691 3.5 45.6056 3.5C45.6422 3.5 45.6787 3.5 45.7153 3.5C45.7519 3.5 45.7885 3.5 45.8251 3.5C45.8617 3.5 45.8984 3.5 45.9351 3.5C45.9717 3.5 46.0084 3.5 46.0452 3.5C46.0819 3.5 46.1186 3.5 46.1554 3.5C46.1922 3.5 46.229 3.5 46.2658 3.5C46.3026 3.5 46.3395 3.5 46.3764 3.5C46.4133 3.5 46.4502 3.5 46.4871 3.5C46.524 3.5 46.561 3.5 46.598 3.5C46.6349 3.5 46.6719 3.5 46.709 3.5C46.746 3.5 46.7831 3.5 46.8202 3.5C46.8572 3.5 46.8944 3.5 46.9315 3.5C46.9686 3.5 47.0058 3.5 47.043 3.5C47.0802 3.5 47.1174 3.5 47.1546 3.5C47.1919 3.5 47.2292 3.5 47.2665 3.5C47.3038 3.5 47.3411 3.5 47.3784 3.5C47.4158 3.5 47.4532 3.5 47.4906 3.5C47.528 3.5 47.5654 3.5 47.6029 3.5C47.6403 3.5 47.6778 3.5 47.7154 3.5C47.7529 3.5 47.7904 3.5 47.828 3.5C47.8656 3.5 47.9032 3.5 47.9408 3.5C47.9784 3.5 48.0161 3.5 48.0538 3.5C48.0914 3.5 48.1292 3.5 48.1669 3.5C48.2046 3.5 48.2424 3.5 48.2802 3.5C48.318 3.5 48.3558 3.5 48.3937 3.5C48.4315 3.5 48.4694 3.5 48.5073 3.5C48.5452 3.5 48.5832 3.5 48.6212 3.5C48.6591 3.5 48.6971 3.5 48.7351 3.5C48.7732 3.5 48.8112 3.5 48.8493 3.5C48.8874 3.5 48.9255 3.5 48.9637 3.5C49.0018 3.5 49.04 3.5 49.0782 3.5C49.1164 3.5 49.1546 3.5 49.1929 3.5C49.2311 3.5 49.2694 3.5 49.3078 3.5C49.3461 3.5 49.3844 3.5 49.4228 3.5C49.4612 3.5 49.4996 3.5 49.5381 3.5C49.5765 3.5 49.615 3.5 49.6535 3.5C49.692 3.5 49.7305 3.5 49.7691 3.5C49.8076 3.5 49.8462 3.5 49.8849 3.5C49.9235 3.5 49.9621 3.5 50.0008 3.5C50.0395 3.5 50.0782 3.5 50.117 3.5C50.1557 3.5 50.1945 3.5 50.2333 3.5C50.2721 3.5 50.311 3.5 50.3498 3.5C50.3887 3.5 50.4276 3.5 50.4666 3.5C50.5055 3.5 50.5445 3.5 50.5835 3.5C50.6225 3.5 50.6615 3.5 50.7006 3.5C50.7396 3.5 50.7787 3.5 50.8178 3.5C50.857 3.5 50.8961 3.5 50.9353 3.5C50.9745 3.5 51.0137 3.5 51.053 3.5C51.0922 3.5 51.1315 3.5 51.1709 3.5C51.2102 3.5 51.2495 3.5 51.2889 3.5C51.3283 3.5 51.3677 3.5 51.4072 3.5C51.4466 3.5 51.4861 3.5 51.5256 3.5C51.5651 3.5 51.6047 3.5 51.6443 3.5C51.6839 3.5 51.7235 3.5 51.7631 3.5C51.8028 3.5 51.8424 3.5 51.8822 3.5C51.9219 3.5 51.9616 3.5 52.0014 3.5C52.0412 3.5 52.081 3.5 52.1209 3.5C52.1607 3.5 52.2006 3.5 52.2405 3.5C52.2804 3.5 52.3204 3.5 52.3604 3.5C52.4004 3.5 52.4404 3.5 52.4804 3.5C52.5205 3.5 52.5606 3.5 52.6007 3.5C52.6408 3.5 52.681 3.5 52.7212 3.5C52.7614 3.5 52.8016 3.5 52.8419 3.5C52.8821 3.5 52.9224 3.5 52.9628 3.5C53.0031 3.5 53.0435 3.5 53.0839 3.5C53.1243 3.5 53.1647 3.5 53.2052 3.5C53.2456 3.5 53.2862 3.5 53.3267 3.5C53.3672 3.5 53.4078 3.5 53.4484 3.5C53.489 3.5 53.5297 3.5 53.5704 3.5C53.6111 3.5 53.6518 3.5 53.6925 3.5C53.7333 3.5 53.7741 3.5 53.8149 3.5C53.8558 3.5 53.8966 3.5 53.9375 3.5C53.9784 3.5 54.0194 3.5 54.0603 3.5C54.1013 3.5 54.1423 3.5 54.1834 3.5C54.2244 3.5 54.2655 3.5 54.3066 3.5C54.3477 3.5 54.3889 3.5 54.4301 3.5C54.4713 3.5 54.5125 3.5 54.5538 3.5C54.5951 3.5 54.6364 3.5 54.6777 3.5C54.719 3.5 54.7604 3.5 54.8018 3.5C54.8433 3.5 54.8847 3.5 54.9262 3.5C54.9677 3.5 55.0092 3.5 55.0508 3.5C55.0924 3.5 55.134 3.5 55.1756 3.5C55.2173 3.5 55.2589 3.5 55.3007 3.5C55.3424 3.5 55.3841 3.5 55.4259 3.5C55.4677 3.5 55.5096 3.5 55.5514 3.5C55.5933 3.5 55.6352 3.5 55.6772 3.5C55.7191 3.5 55.7611 3.5 55.8031 3.5C55.8451 3.5 55.8872 3.5 55.9293 3.5C55.9714 3.5 56.0136 3.5 56.0557 3.5C56.0979 3.5 56.1401 3.5 56.1824 3.5C56.2247 3.5 56.267 3.5 56.3093 3.5C56.3516 3.5 56.394 3.5 56.4364 3.5C56.4789 3.5 56.5213 3.5 56.5638 3.5C56.6063 3.5 56.6488 3.5 56.6914 3.5C56.734 3.5 56.7766 3.5 56.8193 3.5C56.8619 3.5 56.9046 3.5 56.9473 3.5C56.9901 3.5 57.0329 3.5 57.0757 3.5C57.1185 3.5 57.1613 3.5 57.2042 3.5C57.2471 3.5 57.2901 3.5 57.3331 3.5C57.376 3.5 57.4191 3.5 57.4621 3.5C57.5052 3.5 57.5483 3.5 57.5914 3.5C57.6346 3.5 57.6777 3.5 57.721 3.5C57.7642 3.5 57.8075 3.5 57.8508 3.5C57.8941 3.5 57.9374 3.5 57.9808 3.5C58.0242 3.5 58.0676 3.5 58.1111 3.5C58.1546 3.5 58.1981 3.5 58.2416 3.5C58.2852 3.5 58.3288 3.5 58.3724 3.5C58.4161 3.5 58.4597 3.5 58.5035 3.5C58.5472 3.5 58.591 3.5 58.6348 3.5C58.6786 3.5 58.7224 3.5 58.7663 3.5C58.8102 3.5 58.8541 3.5 58.8981 3.5C58.9421 3.5 58.9861 3.5 59.0302 3.5C59.0742 3.5 59.1183 3.5 59.1625 3.5C59.2066 3.5 59.2508 3.5 59.2951 3.5C59.3393 3.5 59.3836 3.5 59.4279 3.5C59.4722 3.5 59.5166 3.5 59.561 3.5C59.6054 3.5 59.6499 3.5 59.6944 3.5C59.7388 3.5 59.7834 3.5 59.828 3.5C59.8725 3.5 59.9172 3.5 59.9618 3.5C60.0065 3.5 60.0512 3.5 60.096 3.5C60.1407 3.5 60.1855 3.5 60.2304 3.5C60.2752 3.5 60.3201 3.5 60.3651 3.5C60.41 3.5 60.455 3.5 60.5 3.5V2.5C60.455 2.5 60.41 2.5 60.3651 2.5C60.3201 2.5 60.2752 2.5 60.2304 2.5C60.1855 2.5 60.1407 2.5 60.096 2.5C60.0512 2.5 60.0065 2.5 59.9618 2.5C59.9172 2.5 59.8725 2.5 59.828 2.5C59.7834 2.5 59.7388 2.5 59.6944 2.5C59.6499 2.5 59.6054 2.5 59.561 2.5C59.5166 2.5 59.4722 2.5 59.4279 2.5C59.3836 2.5 59.3393 2.5 59.2951 2.5C59.2508 2.5 59.2066 2.5 59.1625 2.5C59.1183 2.5 59.0742 2.5 59.0302 2.5C58.9861 2.5 58.9421 2.5 58.8981 2.5C58.8541 2.5 58.8102 2.5 58.7663 2.5C58.7224 2.5 58.6786 2.5 58.6348 2.5C58.591 2.5 58.5472 2.5 58.5035 2.5C58.4597 2.5 58.4161 2.5 58.3724 2.5C58.3288 2.5 58.2852 2.5 58.2416 2.5C58.1981 2.5 58.1546 2.5 58.1111 2.5C58.0676 2.5 58.0242 2.5 57.9808 2.5C57.9374 2.5 57.8941 2.5 57.8508 2.5C57.8075 2.5 57.7642 2.5 57.721 2.5C57.6777 2.5 57.6346 2.5 57.5914 2.5C57.5483 2.5 57.5052 2.5 57.4621 2.5C57.4191 2.5 57.376 2.5 57.3331 2.5C57.2901 2.5 57.2471 2.5 57.2042 2.5C57.1613 2.5 57.1185 2.5 57.0757 2.5C57.0329 2.5 56.9901 2.5 56.9473 2.5C56.9046 2.5 56.8619 2.5 56.8193 2.5C56.7766 2.5 56.734 2.5 56.6914 2.5C56.6488 2.5 56.6063 2.5 56.5638 2.5C56.5213 2.5 56.4789 2.5 56.4364 2.5C56.394 2.5 56.3516 2.5 56.3093 2.5C56.267 2.5 56.2247 2.5 56.1824 2.5C56.1401 2.5 56.0979 2.5 56.0557 2.5C56.0136 2.5 55.9714 2.5 55.9293 2.5C55.8872 2.5 55.8451 2.5 55.8031 2.5C55.7611 2.5 55.7191 2.5 55.6772 2.5C55.6352 2.5 55.5933 2.5 55.5514 2.5C55.5096 2.5 55.4677 2.5 55.4259 2.5C55.3841 2.5 55.3424 2.5 55.3007 2.5C55.2589 2.5 55.2173 2.5 55.1756 2.5C55.134 2.5 55.0924 2.5 55.0508 2.5C55.0092 2.5 54.9677 2.5 54.9262 2.5C54.8847 2.5 54.8433 2.5 54.8018 2.5C54.7604 2.5 54.719 2.5 54.6777 2.5C54.6364 2.5 54.5951 2.5 54.5538 2.5C54.5125 2.5 54.4713 2.5 54.4301 2.5C54.3889 2.5 54.3477 2.5 54.3066 2.5C54.2655 2.5 54.2244 2.5 54.1834 2.5C54.1423 2.5 54.1013 2.5 54.0603 2.5C54.0194 2.5 53.9784 2.5 53.9375 2.5C53.8966 2.5 53.8558 2.5 53.8149 2.5C53.7741 2.5 53.7333 2.5 53.6925 2.5C53.6518 2.5 53.6111 2.5 53.5704 2.5C53.5297 2.5 53.489 2.5 53.4484 2.5C53.4078 2.5 53.3672 2.5 53.3267 2.5C53.2862 2.5 53.2456 2.5 53.2052 2.5C53.1647 2.5 53.1243 2.5 53.0839 2.5C53.0435 2.5 53.0031 2.5 52.9628 2.5C52.9224 2.5 52.8821 2.5 52.8419 2.5C52.8016 2.5 52.7614 2.5 52.7212 2.5C52.681 2.5 52.6408 2.5 52.6007 2.5C52.5606 2.5 52.5205 2.5 52.4804 2.5C52.4404 2.5 52.4004 2.5 52.3604 2.5C52.3204 2.5 52.2804 2.5 52.2405 2.5C52.2006 2.5 52.1607 2.5 52.1209 2.5C52.081 2.5 52.0412 2.5 52.0014 2.5C51.9616 2.5 51.9219 2.5 51.8822 2.5C51.8424 2.5 51.8028 2.5 51.7631 2.5C51.7235 2.5 51.6839 2.5 51.6443 2.5C51.6047 2.5 51.5651 2.5 51.5256 2.5C51.4861 2.5 51.4466 2.5 51.4072 2.5C51.3677 2.5 51.3283 2.5 51.2889 2.5C51.2495 2.5 51.2102 2.5 51.1709 2.5C51.1315 2.5 51.0922 2.5 51.053 2.5C51.0137 2.5 50.9745 2.5 50.9353 2.5C50.8961 2.5 50.857 2.5 50.8178 2.5C50.7787 2.5 50.7396 2.5 50.7006 2.5C50.6615 2.5 50.6225 2.5 50.5835 2.5C50.5445 2.5 50.5055 2.5 50.4666 2.5C50.4276 2.5 50.3887 2.5 50.3498 2.5C50.311 2.5 50.2721 2.5 50.2333 2.5C50.1945 2.5 50.1557 2.5 50.117 2.5C50.0782 2.5 50.0395 2.5 50.0008 2.5C49.9621 2.5 49.9235 2.5 49.8849 2.5C49.8462 2.5 49.8076 2.5 49.7691 2.5C49.7305 2.5 49.692 2.5 49.6535 2.5C49.615 2.5 49.5765 2.5 49.5381 2.5C49.4996 2.5 49.4612 2.5 49.4228 2.5C49.3844 2.5 49.3461 2.5 49.3078 2.5C49.2694 2.5 49.2311 2.5 49.1929 2.5C49.1546 2.5 49.1164 2.5 49.0782 2.5C49.04 2.5 49.0018 2.5 48.9637 2.5C48.9255 2.5 48.8874 2.5 48.8493 2.5C48.8112 2.5 48.7732 2.5 48.7351 2.5C48.6971 2.5 48.6591 2.5 48.6212 2.5C48.5832 2.5 48.5452 2.5 48.5073 2.5C48.4694 2.5 48.4315 2.5 48.3937 2.5C48.3558 2.5 48.318 2.5 48.2802 2.5C48.2424 2.5 48.2046 2.5 48.1669 2.5C48.1292 2.5 48.0914 2.5 48.0538 2.5C48.0161 2.5 47.9784 2.5 47.9408 2.5C47.9032 2.5 47.8656 2.5 47.828 2.5C47.7904 2.5 47.7529 2.5 47.7154 2.5C47.6778 2.5 47.6403 2.5 47.6029 2.5C47.5654 2.5 47.528 2.5 47.4906 2.5C47.4532 2.5 47.4158 2.5 47.3784 2.5C47.3411 2.5 47.3038 2.5 47.2665 2.5C47.2292 2.5 47.1919 2.5 47.1546 2.5C47.1174 2.5 47.0802 2.5 47.043 2.5C47.0058 2.5 46.9686 2.5 46.9315 2.5C46.8944 2.5 46.8572 2.5 46.8202 2.5C46.7831 2.5 46.746 2.5 46.709 2.5C46.6719 2.5 46.6349 2.5 46.598 2.5C46.561 2.5 46.524 2.5 46.4871 2.5C46.4502 2.5 46.4133 2.5 46.3764 2.5C46.3395 2.5 46.3026 2.5 46.2658 2.5C46.229 2.5 46.1922 2.5 46.1554 2.5C46.1186 2.5 46.0819 2.5 46.0452 2.5C46.0084 2.5 45.9717 2.5 45.9351 2.5C45.8984 2.5 45.8617 2.5 45.8251 2.5C45.7885 2.5 45.7519 2.5 45.7153 2.5C45.6787 2.5 45.6422 2.5 45.6056 2.5C45.5691 2.5 45.5326 2.5 45.4961 2.5C45.4597 2.5 45.4232 2.5 45.3868 2.5C45.3503 2.5 45.3139 2.5 45.2776 2.5C45.2412 2.5 45.2048 2.5 45.1685 2.5C45.1321 2.5 45.0958 2.5 45.0596 2.5C45.0233 2.5 44.987 2.5 44.9508 2.5C44.9145 2.5 44.8783 2.5 44.8421 2.5C44.8059 2.5 44.7698 2.5 44.7336 2.5C44.6975 2.5 44.6613 2.5 44.6252 2.5C44.5891 2.5 44.5531 2.5 44.517 2.5C44.481 2.5 44.4449 2.5 44.4089 2.5C44.3729 2.5 44.3369 2.5 44.301 2.5C44.265 2.5 44.2291 2.5 44.1931 2.5C44.1572 2.5 44.1213 2.5 44.0855 2.5C44.0496 2.5 44.0137 2.5 43.9779 2.5C43.9421 2.5 43.9063 2.5 43.8705 2.5C43.8347 2.5 43.7989 2.5 43.7632 2.5C43.7275 2.5 43.6917 2.5 43.656 2.5C43.6203 2.5 43.5847 2.5 43.549 2.5C43.5134 2.5 43.4777 2.5 43.4421 2.5C43.4065 2.5 43.3709 2.5 43.3353 2.5C43.2998 2.5 43.2642 2.5 43.2287 2.5C43.1932 2.5 43.1577 2.5 43.1222 2.5C43.0867 2.5 43.0512 2.5 43.0158 2.5C42.9803 2.5 42.9449 2.5 42.9095 2.5C42.8741 2.5 42.8387 2.5 42.8034 2.5C42.768 2.5 42.7326 2.5 42.6973 2.5C42.662 2.5 42.6267 2.5 42.5914 2.5C42.5561 2.5 42.5209 2.5 42.4856 2.5C42.4504 2.5 42.4152 2.5 42.38 2.5C42.3448 2.5 42.3096 2.5 42.2744 2.5C42.2392 2.5 42.2041 2.5 42.169 2.5C42.1338 2.5 42.0987 2.5 42.0636 2.5C42.0286 2.5 41.9935 2.5 41.9584 2.5C41.9234 2.5 41.8884 2.5 41.8534 2.5C41.8183 2.5 41.7833 2.5 41.7484 2.5C41.7134 2.5 41.6784 2.5 41.6435 2.5C41.6086 2.5 41.5737 2.5 41.5388 2.5C41.5039 2.5 41.469 2.5 41.4341 2.5C41.3992 2.5 41.3644 2.5 41.3296 2.5C41.2947 2.5 41.2599 2.5 41.2251 2.5C41.1903 2.5 41.1556 2.5 41.1208 2.5C41.0861 2.5 41.0513 2.5 41.0166 2.5C40.9819 2.5 40.9472 2.5 40.9125 2.5C40.8778 2.5 40.8431 2.5 40.8085 2.5C40.7738 2.5 40.7392 2.5 40.7046 2.5C40.67 2.5 40.6354 2.5 40.6008 2.5C40.5662 2.5 40.5316 2.5 40.4971 2.5C40.4625 2.5 40.428 2.5 40.3935 2.5C40.359 2.5 40.3245 2.5 40.29 2.5C40.2555 2.5 40.221 2.5 40.1866 2.5C40.1521 2.5 40.1177 2.5 40.0833 2.5C40.0488 2.5 40.0144 2.5 39.98 2.5C39.9457 2.5 39.9113 2.5 39.8769 2.5C39.8426 2.5 39.8082 2.5 39.7739 2.5C39.7396 2.5 39.7053 2.5 39.671 2.5C39.6367 2.5 39.6024 2.5 39.5681 2.5C39.5339 2.5 39.4996 2.5 39.4654 2.5C39.4312 2.5 39.3969 2.5 39.3627 2.5C39.3285 2.5 39.2944 2.5 39.2602 2.5C39.226 2.5 39.1918 2.5 39.1577 2.5C39.1236 2.5 39.0894 2.5 39.0553 2.5C39.0212 2.5 38.9871 2.5 38.953 2.5C38.9189 2.5 38.8848 2.5 38.8508 2.5C38.8167 2.5 38.7827 2.5 38.7487 2.5C38.7146 2.5 38.6806 2.5 38.6466 2.5C38.6126 2.5 38.5786 2.5 38.5446 2.5C38.5107 2.5 38.4767 2.5 38.4427 2.5C38.4088 2.5 38.3749 2.5 38.3409 2.5C38.307 2.5 38.2731 2.5 38.2392 2.5C38.2053 2.5 38.1714 2.5 38.1376 2.5C38.1037 2.5 38.0698 2.5 38.036 2.5C38.0022 2.5 37.9683 2.5 37.9345 2.5C37.9007 2.5 37.8669 2.5 37.8331 2.5C37.7993 2.5 37.7655 2.5 37.7317 2.5C37.698 2.5 37.6642 2.5 37.6305 2.5C37.5967 2.5 37.563 2.5 37.5293 2.5C37.4956 2.5 37.4618 2.5 37.4281 2.5C37.3945 2.5 37.3608 2.5 37.3271 2.5C37.2934 2.5 37.2598 2.5 37.2261 2.5C37.1925 2.5 37.1588 2.5 37.1252 2.5C37.0916 2.5 37.0579 2.5 37.0243 2.5C36.9907 2.5 36.9571 2.5 36.9236 2.5C36.89 2.5 36.8564 2.5 36.8228 2.5C36.7893 2.5 36.7557 2.5 36.7222 2.5C36.6887 2.5 36.6551 2.5 36.6216 2.5C36.5881 2.5 36.5546 2.5 36.5211 2.5C36.4876 2.5 36.4541 2.5 36.4206 2.5C36.3871 2.5 36.3537 2.5 36.3202 2.5C36.2868 2.5 36.2533 2.5 36.2199 2.5C36.1864 2.5 36.153 2.5 36.1196 2.5C36.0862 2.5 36.0528 2.5 36.0194 2.5C35.986 2.5 35.9526 2.5 35.9192 2.5C35.8858 2.5 35.8524 2.5 35.8191 2.5C35.7857 2.5 35.7524 2.5 35.719 2.5C35.6857 2.5 35.6524 2.5 35.619 2.5C35.5857 2.5 35.5524 2.5 35.5191 2.5C35.4858 2.5 35.4525 2.5 35.4192 2.5C35.3859 2.5 35.3526 2.5 35.3193 2.5C35.2861 2.5 35.2528 2.5 35.2195 2.5C35.1863 2.5 35.153 2.5 35.1198 2.5C35.0865 2.5 35.0533 2.5 35.0201 2.5C34.9869 2.5 34.9536 2.5 34.9204 2.5C34.8872 2.5 34.854 2.5 34.8208 2.5C34.7876 2.5 34.7544 2.5 34.7213 2.5C34.6881 2.5 34.6549 2.5 34.6218 2.5C34.5886 2.5 34.5554 2.5 34.5223 2.5C34.4891 2.5 34.456 2.5 34.4228 2.5C34.3897 2.5 34.3566 2.5 34.3235 2.5C34.2903 2.5 34.2572 2.5 34.2241 2.5C34.191 2.5 34.1579 2.5 34.1248 2.5C34.0917 2.5 34.0586 2.5 34.0255 2.5C33.9924 2.5 33.9594 2.5 33.9263 2.5C33.8932 2.5 33.8602 2.5 33.8271 2.5C33.794 2.5 33.761 2.5 33.7279 2.5C33.6949 2.5 33.6618 2.5 33.6288 2.5C33.5958 2.5 33.5627 2.5 33.5297 2.5C33.4967 2.5 33.4637 2.5 33.4307 2.5C33.3976 2.5 33.3646 2.5 33.3316 2.5C33.2986 2.5 33.2656 2.5 33.2326 2.5C33.1996 2.5 33.1666 2.5 33.1337 2.5C33.1007 2.5 33.0677 2.5 33.0347 2.5C33.0017 2.5 32.9688 2.5 32.9358 2.5C32.9028 2.5 32.8699 2.5 32.8369 2.5C32.804 2.5 32.771 2.5 32.738 2.5C32.7051 2.5 32.6722 2.5 32.6392 2.5C32.6063 2.5 32.5733 2.5 32.5404 2.5C32.5075 2.5 32.4745 2.5 32.4416 2.5C32.4087 2.5 32.3758 2.5 32.3428 2.5C32.3099 2.5 32.277 2.5 32.2441 2.5C32.2112 2.5 32.1783 2.5 32.1454 2.5C32.1125 2.5 32.0796 2.5 32.0467 2.5C32.0138 2.5 31.9809 2.5 31.948 2.5C31.9151 2.5 31.8822 2.5 31.8493 2.5C31.8164 2.5 31.7835 2.5 31.7506 2.5C31.7177 2.5 31.6849 2.5 31.652 2.5C31.6191 2.5 31.5862 2.5 31.5534 2.5C31.5205 2.5 31.4876 2.5 31.4547 2.5C31.4219 2.5 31.389 2.5 31.3561 2.5C31.3233 2.5 31.2904 2.5 31.2575 2.5C31.2247 2.5 31.1918 2.5 31.159 2.5C31.1261 2.5 31.0932 2.5 31.0604 2.5C31.0275 2.5 30.9947 2.5 30.9618 2.5C30.929 2.5 30.8961 2.5 30.8633 2.5C30.8304 2.5 30.7976 2.5 30.7647 2.5C30.7319 2.5 30.699 2.5 30.6662 2.5C30.6333 2.5 30.6005 2.5 30.5676 2.5C30.5348 2.5 30.5019 2.5 30.4691 2.5C30.4362 2.5 30.4034 2.5 30.3705 2.5C30.3377 2.5 30.3048 2.5 30.272 2.5C30.2391 2.5 30.2063 2.5 30.1735 2.5C30.1406 2.5 30.1078 2.5 30.0749 2.5C30.0421 2.5 30.0092 2.5 29.9764 2.5C29.9435 2.5 29.9107 2.5 29.8778 2.5C29.845 2.5 29.8121 2.5 29.7793 2.5C29.7464 2.5 29.7136 2.5 29.6807 2.5C29.6479 2.5 29.615 2.5 29.5822 2.5C29.5493 2.5 29.5165 2.5 29.4836 2.5C29.4508 2.5 29.4179 2.5 29.385 2.5C29.3522 2.5 29.3193 2.5 29.2865 2.5C29.2536 2.5 29.2207 2.5 29.1879 2.5C29.155 2.5 29.1221 2.5 29.0893 2.5C29.0564 2.5 29.0235 2.5 28.9907 2.5C28.9578 2.5 28.9249 2.5 28.892 2.5C28.8592 2.5 28.8263 2.5 28.7934 2.5C28.7605 2.5 28.7276 2.5 28.6948 2.5C28.6619 2.5 28.629 2.5 28.5961 2.5C28.5632 2.5 28.5303 2.5 28.4974 2.5C28.4645 2.5 28.4316 2.5 28.3987 2.5C28.3658 2.5 28.3329 2.5 28.3 2.5C28.2671 2.5 28.2342 2.5 28.2012 2.5C28.1683 2.5 28.1354 2.5 28.1025 2.5C28.0696 2.5 28.0366 2.5 28.0037 2.5C27.9708 2.5 27.9378 2.5 27.9049 2.5C27.872 2.5 27.839 2.5 27.8061 2.5C27.7731 2.5 27.7402 2.5 27.7072 2.5C27.6743 2.5 27.6413 2.5 27.6083 2.5C27.5754 2.5 27.5424 2.5 27.5094 2.5C27.4765 2.5 27.4435 2.5 27.4105 2.5C27.3775 2.5 27.3446 2.5 27.3116 2.5C27.2786 2.5 27.2456 2.5 27.2126 2.5C27.1796 2.5 27.1466 2.5 27.1136 2.5C27.0805 2.5 27.0475 2.5 27.0145 2.5C26.9815 2.5 26.9485 2.5 26.9154 2.5C26.8824 2.5 26.8494 2.5 26.8163 2.5C26.7833 2.5 26.7502 2.5 26.7172 2.5C26.6841 2.5 26.6511 2.5 26.618 2.5C26.5849 2.5 26.5519 2.5 26.5188 2.5C26.4857 2.5 26.4526 2.5 26.4195 2.5C26.3864 2.5 26.3533 2.5 26.3202 2.5C26.2871 2.5 26.254 2.5 26.2209 2.5C26.1878 2.5 26.1547 2.5 26.1215 2.5C26.0884 2.5 26.0553 2.5 26.0221 2.5C25.989 2.5 25.9558 2.5 25.9227 2.5C25.8895 2.5 25.8563 2.5 25.8232 2.5C25.79 2.5 25.7568 2.5 25.7236 2.5C25.6904 2.5 25.6572 2.5 25.624 2.5C25.5908 2.5 25.5576 2.5 25.5244 2.5C25.4912 2.5 25.458 2.5 25.4247 2.5C25.3915 2.5 25.3583 2.5 25.325 2.5C25.2918 2.5 25.2585 2.5 25.2252 2.5C25.192 2.5 25.1587 2.5 25.1254 2.5C25.0921 2.5 25.0588 2.5 25.0255 2.5C24.9922 2.5 24.9589 2.5 24.9256 2.5C24.8923 2.5 24.859 2.5 24.8256 2.5C24.7923 2.5 24.7589 2.5 24.7256 2.5C24.6922 2.5 24.6589 2.5 24.6255 2.5C24.5921 2.5 24.5587 2.5 24.5254 2.5C24.492 2.5 24.4586 2.5 24.4252 2.5C24.3917 2.5 24.3583 2.5 24.3249 2.5C24.2915 2.5 24.258 2.5 24.2246 2.5C24.1911 2.5 24.1577 2.5 24.1242 2.5C24.0907 2.5 24.0573 2.5 24.0238 2.5C23.9903 2.5 23.9568 2.5 23.9233 2.5C23.8898 2.5 23.8562 2.5 23.8227 2.5C23.7892 2.5 23.7556 2.5 23.7221 2.5C23.6885 2.5 23.655 2.5 23.6214 2.5C23.5878 2.5 23.5542 2.5 23.5207 2.5C23.4871 2.5 23.4535 2.5 23.4198 2.5C23.3862 2.5 23.3526 2.5 23.3189 2.5C23.2853 2.5 23.2517 2.5 23.218 2.5C23.1843 2.5 23.1507 2.5 23.117 2.5C23.0833 2.5 23.0496 2.5 23.0159 2.5C22.9822 2.5 22.9484 2.5 22.9147 2.5C22.881 2.5 22.8472 2.5 22.8135 2.5C22.7797 2.5 22.7459 2.5 22.7122 2.5C22.6784 2.5 22.6446 2.5 22.6108 2.5C22.577 2.5 22.5432 2.5 22.5093 2.5C22.4755 2.5 22.4416 2.5 22.4078 2.5C22.3739 2.5 22.3401 2.5 22.3062 2.5C22.2723 2.5 22.2384 2.5 22.2045 2.5C22.1706 2.5 22.1366 2.5 22.1027 2.5C22.0688 2.5 22.0348 2.5 22.0009 2.5C21.9669 2.5 21.9329 2.5 21.8989 2.5C21.8649 2.5 21.8309 2.5 21.7969 2.5C21.7629 2.5 21.7289 2.5 21.6948 2.5C21.6608 2.5 21.6267 2.5 21.5926 2.5C21.5586 2.5 21.5245 2.5 21.4904 2.5C21.4563 2.5 21.4222 2.5 21.388 2.5C21.3539 2.5 21.3197 2.5 21.2856 2.5C21.2514 2.5 21.2172 2.5 21.1831 2.5C21.1489 2.5 21.1147 2.5 21.0804 2.5C21.0462 2.5 21.012 2.5 20.9777 2.5C20.9435 2.5 20.9092 2.5 20.8749 2.5C20.8407 2.5 20.8064 2.5 20.7721 2.5C20.7377 2.5 20.7034 2.5 20.6691 2.5C20.6347 2.5 20.6004 2.5 20.566 2.5C20.5316 2.5 20.4972 2.5 20.4628 2.5C20.4284 2.5 20.394 2.5 20.3596 2.5C20.3251 2.5 20.2907 2.5 20.2562 2.5C20.2217 2.5 20.1872 2.5 20.1527 2.5C20.1182 2.5 20.0837 2.5 20.0492 2.5C20.0147 2.5 19.9801 2.5 19.9455 2.5C19.911 2.5 19.8764 2.5 19.8418 2.5C19.8072 2.5 19.7726 2.5 19.7379 2.5C19.7033 2.5 19.6686 2.5 19.634 2.5C19.5993 2.5 19.5646 2.5 19.5299 2.5C19.4952 2.5 19.4605 2.5 19.4257 2.5C19.391 2.5 19.3562 2.5 19.3214 2.5C19.2867 2.5 19.2519 2.5 19.2171 2.5C19.1823 2.5 19.1474 2.5 19.1126 2.5C19.0777 2.5 19.0429 2.5 19.008 2.5C18.9731 2.5 18.9382 2.5 18.9033 2.5C18.8683 2.5 18.8334 2.5 18.7985 2.5C18.7635 2.5 18.7285 2.5 18.6935 2.5C18.6585 2.5 18.6235 2.5 18.5885 2.5C18.5535 2.5 18.5184 2.5 18.4833 2.5C18.4483 2.5 18.4132 2.5 18.3781 2.5C18.343 2.5 18.3078 2.5 18.2727 2.5C18.2375 2.5 18.2024 2.5 18.1672 2.5C18.132 2.5 18.0968 2.5 18.0616 2.5C18.0263 2.5 17.9911 2.5 17.9558 2.5C17.9206 2.5 17.8853 2.5 17.85 2.5C17.8147 2.5 17.7793 2.5 17.744 2.5C17.7086 2.5 17.6733 2.5 17.6379 2.5C17.6025 2.5 17.5671 2.5 17.5317 2.5C17.4963 2.5 17.4608 2.5 17.4253 2.5C17.3899 2.5 17.3544 2.5 17.3189 2.5C17.2834 2.5 17.2478 2.5 17.2123 2.5C17.1767 2.5 17.1412 2.5 17.1056 2.5C17.07 2.5 17.0344 2.5 16.9987 2.5C16.9631 2.5 16.9274 2.5 16.8918 2.5C16.8561 2.5 16.8204 2.5 16.7847 2.5C16.7489 2.5 16.7132 2.5 16.6774 2.5C16.6417 2.5 16.6059 2.5 16.5701 2.5C16.5342 2.5 16.4984 2.5 16.4626 2.5C16.4267 2.5 16.3908 2.5 16.3549 2.5C16.319 2.5 16.2831 2.5 16.2472 2.5C16.2112 2.5 16.1753 2.5 16.1393 2.5C16.1033 2.5 16.0673 2.5 16.0313 2.5C15.9952 2.5 15.9592 2.5 15.9231 2.5C15.887 2.5 15.8509 2.5 15.8148 2.5C15.7787 2.5 15.7425 2.5 15.7063 2.5C15.6702 2.5 15.634 2.5 15.5978 2.5C15.5615 2.5 15.5253 2.5 15.489 2.5C15.4528 2.5 15.4165 2.5 15.3802 2.5C15.3438 2.5 15.3075 2.5 15.2712 2.5C15.2348 2.5 15.1984 2.5 15.162 2.5C15.1256 2.5 15.0892 2.5 15.0527 2.5C15.0162 2.5 14.9798 2.5 14.9433 2.5C14.9068 2.5 14.8702 2.5 14.8337 2.5C14.7971 2.5 14.7605 2.5 14.7239 2.5C14.6873 2.5 14.6507 2.5 14.614 2.5C14.5774 2.5 14.5407 2.5 14.504 2.5C14.4673 2.5 14.4306 2.5 14.3938 2.5C14.3571 2.5 14.3203 2.5 14.2835 2.5C14.2467 2.5 14.2099 2.5 14.173 2.5C14.1361 2.5 14.0993 2.5 14.0624 2.5C14.0254 2.5 13.9885 2.5 13.9516 2.5C13.9146 2.5 13.8776 2.5 13.8406 2.5C13.8036 2.5 13.7666 2.5 13.7295 2.5C13.6924 2.5 13.6553 2.5 13.6182 2.5C13.5811 2.5 13.544 2.5 13.5068 2.5C13.4696 2.5 13.4324 2.5 13.3952 2.5C13.358 2.5 13.3208 2.5 13.2835 2.5C13.2462 2.5 13.2089 2.5 13.1716 2.5C13.1342 2.5 13.0969 2.5 13.0595 2.5C13.0221 2.5 12.9847 2.5 12.9473 2.5C12.9098 2.5 12.8724 2.5 12.8349 2.5C12.7974 2.5 12.7599 2.5 12.7223 2.5C12.6848 2.5 12.6472 2.5 12.6096 2.5C12.572 2.5 12.5344 2.5 12.4967 2.5C12.459 2.5 12.4213 2.5 12.3836 2.5C12.3459 2.5 12.3082 2.5 12.2704 2.5C12.2326 2.5 12.1948 2.5 12.157 2.5C12.1192 2.5 12.0813 2.5 12.0434 2.5C12.0055 2.5 11.9676 2.5 11.9297 2.5C11.8917 2.5 11.8538 2.5 11.8158 2.5C11.7778 2.5 11.7397 2.5 11.7017 2.5C11.6636 2.5 11.6255 2.5 11.5874 2.5C11.5493 2.5 11.5111 2.5 11.473 2.5C11.4348 2.5 11.3966 2.5 11.3583 2.5C11.3201 2.5 11.2818 2.5 11.2435 2.5C11.2052 2.5 11.1669 2.5 11.1286 2.5C11.0902 2.5 11.0518 2.5 11.0134 2.5C10.975 2.5 10.9365 2.5 10.8981 2.5C10.8596 2.5 10.8211 2.5 10.7826 2.5C10.744 2.5 10.7055 2.5 10.6669 2.5C10.6283 2.5 10.5896 2.5 10.551 2.5C10.5123 2.5 10.4736 2.5 10.4349 2.5C10.3962 2.5 10.3574 2.5 10.3186 2.5C10.2799 2.5 10.241 2.5 10.2022 2.5C10.1634 2.5 10.1245 2.5 10.0856 2.5C10.0467 2.5 10.0077 2.5 9.96875 2.5C9.92978 2.5 9.89077 2.5 9.85174 2.5C9.8127 2.5 9.77364 2.5 9.73454 2.5C9.69544 2.5 9.65631 2.5 9.61715 2.5C9.57799 2.5 9.53879 2.5 9.49957 2.5C9.46034 2.5 9.42108 2.5 9.38179 2.5C9.3425 2.5 9.30317 2.5 9.26382 2.5C9.22446 2.5 9.18507 2.5 9.14565 2.5C9.10623 2.5 9.06677 2.5 9.02728 2.5C8.9878 2.5 8.94828 2.5 8.90872 2.5C8.86917 2.5 8.82958 2.5 8.78996 2.5C8.75034 2.5 8.71069 2.5 8.671 2.5C8.63132 2.5 8.5916 2.5 8.55184 2.5C8.51209 2.5 8.4723 2.5 8.43248 2.5C8.39266 2.5 8.35281 2.5 8.31292 2.5C8.27303 2.5 8.23311 2.5 8.19315 2.5C8.1532 2.5 8.11321 2.5 8.07318 2.5C8.03316 2.5 7.9931 2.5 7.953 2.5C7.91291 2.5 7.87278 2.5 7.83262 2.5C7.79246 2.5 7.75226 2.5 7.71203 2.5C7.6718 2.5 7.63153 2.5 7.59123 2.5C7.55093 2.5 7.5106 2.5 7.47022 2.5C7.42985 2.5 7.38945 2.5 7.34901 2.5C7.30857 2.5 7.26809 2.5 7.22758 2.5C7.18707 2.5 7.14652 2.5 7.10594 2.5C7.06535 2.5 7.02474 2.5 6.98408 2.5C6.94343 2.5 6.90274 2.5 6.86201 2.5C6.82129 2.5 6.78053 2.5 6.73973 2.5C6.69893 2.5 6.6581 2.5 6.61723 2.5C6.57636 2.5 6.53545 2.5 6.49451 2.5C6.45357 2.5 6.41259 2.5 6.37158 2.5C6.33056 2.5 6.28951 2.5 6.24842 2.5C6.20734 2.5 6.16621 2.5 6.12505 2.5C6.08389 2.5 6.04269 2.5 6.00145 2.5C5.96022 2.5 5.91895 2.5 5.87764 2.5C5.83633 2.5 5.79498 2.5 5.7536 2.5C5.71221 2.5 5.67079 2.5 5.62933 2.5C5.58788 2.5 5.54638 2.5 5.50485 2.5C5.46331 2.5 5.42174 2.5 5.38013 2.5C5.33852 2.5 5.29687 2.5 5.25519 2.5C5.2135 2.5 5.17178 2.5 5.13002 2.5C5.08826 2.5 5.04646 2.5 5.00462 2.5C4.96278 2.5 4.92091 2.5 4.87899 2.5C4.83708 2.5 4.79513 2.5 4.75314 2.5C4.71114 2.5 4.66911 2.5 4.62704 2.5C4.58498 2.5 4.54287 2.5 4.50072 2.5V3.5Z" fill="#929292"/>
</svg>
