<svg width="16" height="13" viewBox="0 0 16 13" fill="none" xmlns="http://www.w3.org/2000/svg">
<path d="M5.2 6.5C6.7468 6.5 8 5.04539 8 3.25C8 1.45461 6.7468 0 5.2 0C3.6532 0 2.4 1.45461 2.4 3.25C2.4 5.04539 3.6532 6.5 5.2 6.5ZM14 4.875C14 6.28596 13.0156 7.42857 11.8 7.42857C11.2165 7.42857 10.6569 7.15954 10.2444 6.68065C9.83179 6.20176 9.6 5.55225 9.6 4.875C9.6 3.46404 10.5844 2.32143 11.8 2.32143C13.0156 2.32143 14 3.46404 14 4.875ZM5.2 7.42857C6.2936 7.42857 8.0732 7.82368 9.2404 8.61018C9.7172 9.17336 10 9.78761 10 10.4V13H0V10.4C0 8.424 3.4644 7.42857 5.2 7.42857ZM16 13H10.8V10.4C10.8 9.74257 10.5956 9.13714 10.2704 8.59718C10.8868 8.43746 11.4936 8.35714 11.9572 8.35714C13.448 8.35714 16 9.18682 16 10.8332V13Z" fill="black"/>
</svg>
