<svg width="23" height="23" viewBox="0 0 23 23" fill="none" xmlns="http://www.w3.org/2000/svg">
<g filter="url(#filter0_d_188_449)">
<path d="M11.5 0C15.6423 0 19 3.35775 19 7.5C19 11.6423 15.6423 15 11.5 15C7.35775 15 4 11.6423 4 7.5C4 3.35775 7.35775 0 11.5 0ZM11.5 3C11.3011 3 11.1103 3.07902 10.9697 3.21967C10.829 3.36032 10.75 3.55109 10.75 3.75V7.5C10.75 7.6989 10.8291 7.88963 10.9698 8.03025L13.2198 10.2802C13.3612 10.4169 13.5507 10.4925 13.7473 10.4908C13.9439 10.489 14.1321 10.4102 14.2711 10.2711C14.4102 10.1321 14.489 9.94395 14.4908 9.7473C14.4925 9.55065 14.4169 9.3612 14.2802 9.21975L12.25 7.1895V3.75C12.25 3.55109 12.171 3.36032 12.0303 3.21967C11.8897 3.07902 11.6989 3 11.5 3Z" fill="black"/>
</g>
<defs>
<filter id="filter0_d_188_449" x="0" y="0" width="23" height="23" filterUnits="userSpaceOnUse" color-interpolation-filters="sRGB">
<feFlood flood-opacity="0" result="BackgroundImageFix"/>
<feColorMatrix in="SourceAlpha" type="matrix" values="0 0 0 0 0 0 0 0 0 0 0 0 0 0 0 0 0 0 127 0" result="hardAlpha"/>
<feOffset dy="4"/>
<feGaussianBlur stdDeviation="2"/>
<feComposite in2="hardAlpha" operator="out"/>
<feColorMatrix type="matrix" values="0 0 0 0 0 0 0 0 0 0 0 0 0 0 0 0 0 0 0.25 0"/>
<feBlend mode="normal" in2="BackgroundImageFix" result="effect1_dropShadow_188_449"/>
<feBlend mode="normal" in="SourceGraphic" in2="effect1_dropShadow_188_449" result="shape"/>
</filter>
</defs>
</svg>
